<?xml version="1.0" standalone="no"?>
<!DOCTYPE svg PUBLIC "-//W3C//DTD SVG 20010904//EN"
 "http://www.w3.org/TR/2001/REC-SVG-20010904/DTD/svg10.dtd">
<svg version="1.0" xmlns="http://www.w3.org/2000/svg"
 width="950.000000pt" height="335.000000pt" viewBox="0 0 950.000000 335.000000"
 preserveAspectRatio="xMidYMid meet">

<g transform="translate(0.000000,335.000000) scale(0.100000,-0.100000)"
fill="#000000" stroke="none">
<path d="M7820 2950 c-234 -103 -431 -193 -437 -199 -7 -7 -13 -21 -13 -32 0
-16 18 -29 80 -57 l80 -36 0 -54 c0 -52 -1 -54 -22 -48 -63 18 -83 18 -111 -4
-44 -35 -37 -68 34 -151 54 -62 60 -73 50 -92 -6 -12 -10 -56 -9 -97 2 -66 -2
-86 -36 -168 -20 -51 -44 -116 -53 -145 -22 -71 -22 -226 0 -298 l17 -57 -36
-77 c-79 -171 -113 -407 -80 -549 22 -91 69 -178 124 -227 l45 -39 -54 0 c-67
0 -114 -27 -135 -76 -29 -69 15 -153 87 -168 17 -3 115 -6 218 -6 l186 -1 20
-32 c13 -20 35 -37 61 -46 36 -13 44 -12 72 2 29 14 35 14 64 0 28 -14 36 -15
72 -2 26 9 48 26 61 46 l20 32 137 1 136 0 20 -34 c27 -46 83 -64 132 -44 29
12 39 12 60 1 14 -7 34 -13 45 -13 30 0 84 36 97 65 l11 25 196 1 c124 0 209
4 231 12 82 28 105 137 42 200 -26 26 -40 31 -92 35 -33 2 -60 6 -60 8 0 2 18
21 41 41 148 134 173 430 60 719 -18 43 -38 90 -45 103 -11 20 -11 31 2 70 9
29 15 88 16 156 1 96 -3 121 -28 195 -25 76 -100 239 -136 296 -12 19 -5 30
74 128 56 70 86 116 86 132 0 25 -40 74 -60 74 -5 0 -62 -16 -126 -35 -63 -19
-122 -35 -130 -35 -12 0 -14 10 -12 41 l3 41 154 67 c160 70 191 93 168 124
-12 17 -871 398 -891 396 -6 -1 -202 -86 -436 -189z m643 11 c111 -49 277
-121 370 -162 92 -40 164 -76 160 -79 -14 -11 -721 -320 -733 -320 -7 0 -103
40 -214 89 -110 49 -223 99 -250 111 -27 11 -47 22 -44 25 2 2 121 16 263 30
142 14 265 31 272 37 20 16 16 58 -7 66 -11 4 -174 -8 -362 -27 -285 -28 -348
-31 -373 -21 l-30 12 30 14 c36 17 709 313 713 313 2 1 94 -39 205 -88z m-765
-449 c3 -46 3 -46 -50 -31 -37 10 -38 11 -38 59 l0 49 43 -18 c39 -16 42 -21
45 -59z m326 -102 c125 -55 232 -100 239 -100 7 0 113 45 237 99 l225 100 3
-57 c3 -52 1 -59 -26 -83 -124 -111 -567 -132 -815 -39 -75 28 -97 57 -97 126
0 30 2 54 4 54 2 0 105 -45 230 -100z m-494 0 c0 -14 -14 -12 -28 2 -19 19
-14 30 8 18 11 -6 20 -15 20 -20z m1489 3 c-8 -10 -43 -50 -77 -89 -34 -40
-62 -78 -62 -86 0 -8 22 -52 50 -97 27 -46 68 -131 91 -189 38 -95 43 -118 47
-207 5 -119 -10 -180 -66 -274 -72 -123 -216 -225 -364 -258 -106 -24 -650
-24 -756 0 -165 37 -315 154 -388 302 -37 74 -39 85 -42 184 -3 82 1 119 15
166 l19 60 70 2 c80 3 122 15 131 38 3 9 -2 53 -11 98 -9 51 -13 103 -10 138
6 52 4 58 -25 91 -22 26 -31 46 -31 72 0 40 5 42 62 25 26 -7 43 -19 53 -40
51 -97 257 -160 530 -160 206 0 339 22 445 76 44 22 110 85 110 104 0 5 37 18
83 29 46 12 94 25 108 30 30 12 36 7 18 -15z m-1433 -184 c7 -12 -15 -31 -28
-23 -4 3 -8 12 -8 20 0 17 26 19 36 3z m-2 -146 c4 -21 9 -46 12 -55 4 -15 -1
-18 -26 -18 -32 0 -32 1 -26 38 15 83 30 96 40 35z m-124 -681 c0 -5 16 -27
35 -49 33 -39 34 -41 28 -109 -8 -104 13 -297 41 -382 27 -77 76 -171 101
-192 45 -38 -35 -33 -125 7 -87 39 -130 88 -166 193 -25 73 -25 226 0 335 21
91 64 205 77 205 5 0 9 -4 9 -8z m1639 -44 c59 -148 82 -320 58 -434 -36 -170
-118 -251 -279 -280 -40 -7 -49 4 -23 26 24 20 71 109 99 187 31 87 51 261 43
379 -4 74 -3 85 15 101 11 9 27 30 36 45 9 16 19 28 23 28 4 0 16 -24 28 -52z
m-1249 -226 c56 -15 114 -17 410 -17 301 0 353 2 410 18 75 21 195 74 211 93
6 8 15 14 20 14 14 0 10 -199 -6 -275 -17 -81 -79 -213 -128 -269 -33 -39 -34
-39 -58 -23 -27 20 -71 22 -101 6 -16 -8 -30 -8 -59 1 -47 16 -84 7 -121 -31
l-30 -29 -138 0 -138 0 -30 29 c-37 38 -74 47 -121 31 -29 -9 -43 -9 -59 -1
-29 15 -62 14 -97 -5 -30 -15 -30 -15 -63 23 -93 107 -132 221 -139 405 l-6
137 89 -45 c49 -24 118 -52 154 -62z m178 -534 c16 -16 16 -210 0 -226 -7 -7
-17 -8 -30 -1 -16 8 -18 23 -18 112 0 95 8 127 30 127 3 0 11 -5 18 -12z m640
0 c16 -16 16 -210 0 -226 -7 -7 -17 -8 -30 -1 -16 8 -18 23 -18 112 0 95 8
127 30 127 3 0 11 -5 18 -12z m-774 -14 c3 -9 6 -58 6 -109 0 -81 -3 -96 -18
-104 -33 -18 -42 6 -42 114 0 56 3 105 7 108 12 13 41 7 47 -9z m644 -94 c2
-89 0 -107 -14 -117 -34 -25 -44 1 -44 112 0 56 3 105 7 109 4 4 16 6 28 4 18
-3 20 -11 23 -108z m-788 10 l0 -40 -200 0 c-183 0 -200 1 -209 18 -7 14 -6
25 5 40 15 21 22 22 210 22 l194 0 0 -40z m648 -2 l3 -38 -139 0 -139 0 3 38
c2 20 3 38 3 40 1 1 61 1 134 0 l132 -3 3 -37z m776 20 c11 -15 12 -26 5 -40
-9 -17 -26 -18 -209 -18 l-200 0 0 40 0 40 194 0 c188 0 195 -1 210 -22z"/>
<path d="M7939 2116 c-99 -26 -196 -111 -243 -211 -91 -190 -26 -403 145 -480
55 -24 70 -27 143 -23 50 3 94 11 114 22 l34 17 53 -50 c32 -31 63 -51 77 -51
13 0 42 19 73 49 l50 50 55 -19 c254 -88 484 132 416 398 -22 87 -50 137 -110
197 -126 126 -304 150 -437 58 l-50 -34 -43 31 c-78 56 -178 73 -277 46z m186
-90 c17 -7 50 -34 75 -60 24 -25 51 -46 60 -46 8 0 35 21 59 46 53 56 99 77
172 77 203 1 358 -250 266 -429 -48 -95 -136 -143 -237 -131 -70 8 -106 30
-114 67 -7 38 -120 160 -148 160 -20 0 -88 -58 -120 -103 -12 -16 -24 -43 -27
-61 -6 -25 -15 -34 -51 -48 -192 -73 -369 96 -316 301 18 70 35 100 85 154 80
86 196 114 296 73z m174 -461 c17 -20 31 -40 31 -45 0 -6 -15 -27 -34 -48
l-35 -37 -30 29 c-46 45 -48 63 -10 102 18 19 36 34 40 34 4 0 21 -16 38 -35z"/>
<path d="M7933 1845 c-61 -26 -96 -122 -54 -145 27 -14 45 -4 62 33 12 27 20
33 51 35 32 3 39 -1 53 -27 10 -21 23 -31 38 -31 75 0 53 102 -29 136 -42 18
-80 17 -121 -1z"/>
<path d="M8464 1846 c-44 -19 -76 -63 -72 -100 3 -26 8 -31 33 -34 24 -2 33 3
47 28 14 25 23 30 53 30 31 0 38 -4 50 -34 16 -39 38 -50 66 -36 43 24 6 120
-56 146 -42 17 -80 17 -121 0z"/>
<path d="M3722 1453 c-124 -62 -35 -252 93 -199 71 30 90 118 38 175 -35 38
-86 47 -131 24z"/>
<path d="M6520 1452 c-234 -78 -389 -318 -366 -569 21 -229 170 -414 385 -477
108 -32 263 -14 360 40 24 13 45 24 48 24 2 0 29 -23 59 -52 l55 -52 77 77 77
77 -56 56 -57 57 25 54 c38 84 53 150 53 243 0 216 -110 400 -297 492 -81 40
-88 42 -196 45 -88 2 -124 -1 -167 -15z m265 -227 c55 -27 116 -90 144 -150
35 -75 41 -208 11 -255 -7 -12 -13 -11 -35 10 l-26 24 -76 -77 -77 -76 27 -29
c15 -15 27 -31 27 -35 0 -10 -71 -27 -116 -27 -139 0 -270 128 -289 285 -8 63
13 157 49 213 30 48 88 99 140 124 53 24 163 21 221 -7z"/>
<path d="M4140 1118 c0 -369 6 -415 62 -519 128 -241 463 -291 655 -99 27 27
61 71 76 98 53 97 57 136 57 509 l0 343 -110 0 -109 0 -3 -347 c-3 -377 -3
-377 -62 -441 -76 -84 -230 -72 -295 24 -45 66 -51 115 -51 451 l0 313 -110 0
-110 0 0 -332z"/>
<path d="M5160 925 l0 -525 110 0 110 0 2 322 3 323 193 -323 193 -322 119 0
120 0 0 525 0 525 -110 0 -110 0 -2 -321 -3 -320 -190 318 -191 318 -122 3
-122 3 0 -526z"/>
<path d="M3240 1265 l0 -115 -50 0 -50 0 0 -110 0 -110 50 0 50 0 0 -265 0
-265 110 0 110 0 2 263 3 262 63 3 62 3 0 109 0 110 -65 0 -65 0 0 115 0 115
-110 0 -110 0 0 -115z"/>
<path d="M1715 1156 c-107 -34 -195 -111 -243 -214 -24 -51 -27 -69 -27 -167
0 -104 2 -114 32 -176 40 -80 111 -150 191 -187 48 -22 71 -27 142 -27 71 0
94 5 141 27 68 31 132 87 171 148 l29 45 -113 27 c-97 23 -115 24 -128 13 -9
-8 -33 -21 -53 -30 -31 -13 -46 -13 -79 -4 -38 10 -98 59 -98 80 0 5 110 9
251 9 l251 0 -4 93 c-3 72 -10 104 -30 149 -29 63 -94 139 -149 174 -79 50
-200 67 -284 40z m177 -208 c24 -17 58 -65 58 -83 0 -8 -268 -6 -274 3 -11 18
36 74 77 93 49 22 96 18 139 -13z"/>
<path d="M2608 1157 c-20 -8 -52 -27 -70 -42 l-33 -28 -3 31 -3 32 -110 0
-109 0 0 -375 0 -375 110 0 110 0 0 213 c0 201 1 215 23 257 30 60 66 84 125
84 64 0 114 -31 141 -88 19 -39 21 -60 21 -254 l0 -212 115 0 115 0 0 188 c0
218 -11 304 -46 382 -31 70 -102 142 -169 171 -62 27 -166 35 -217 16z"/>
<path d="M190 775 l0 -375 109 0 110 0 3 219 c3 204 4 222 24 248 53 73 139
80 201 18 l33 -33 0 -226 0 -226 115 0 115 0 0 226 0 226 33 33 c62 62 148 55
201 -18 20 -26 21 -44 24 -248 l3 -219 110 0 111 0 -4 243 c-3 237 -4 243 -29
297 -39 81 -91 135 -164 171 -117 57 -252 49 -356 -20 -40 -28 -46 -29 -64
-15 -48 36 -130 67 -189 71 -53 5 -69 2 -114 -21 l-52 -26 0 25 0 25 -110 0
-110 0 0 -375z"/>
<path d="M3660 775 l0 -375 110 0 110 0 0 375 0 375 -110 0 -110 0 0 -375z"/>
</g>
</svg>
